<?xml version="1.0" encoding="UTF-8" standalone="no"?>
<!DOCTYPE svg PUBLIC "-//W3C//DTD SVG 1.1//EN"
 "http://www.w3.org/Graphics/SVG/1.1/DTD/svg11.dtd">
<!-- Generated by graphviz version 14.1.1 (20251213.1925)
 -->
<!-- Title: src/driver_stts22h.h Pages: 1 -->
<svg width="877pt" height="232pt"
 viewBox="0.00 0.00 877.00 232.00" xmlns="http://www.w3.org/2000/svg" xmlns:xlink="http://www.w3.org/1999/xlink">
<g id="graph0" class="graph" transform="scale(1 1) rotate(0) translate(4 228)">
<title>src/driver_stts22h.h</title>
<!-- Node1 -->
<g id="Node000001" class="node">
<title>Node1</title>
<g id="a_Node000001"><a xlink:title="driver stts22h header file">
<polygon fill="#999999" stroke="#666666" points="579.75,-224 477.5,-224 477.5,-204 579.75,-204 579.75,-224"/>
<text xml:space="preserve" text-anchor="middle" x="528.62" y="-210.5" font-family="Helvetica,sans-Serif" font-size="10.00">src/driver_stts22h.h</text>
</a>
</g>
</g>
<!-- Node2 -->
<g id="Node000002" class="node">
<title>Node2</title>
<g id="a_Node000002"><a xlink:href="driver__stts22h__interface_8h.html" target="_top" xlink:title="driver stts22h interface header file">
<polygon fill="white" stroke="#666666" points="523.62,-168 405.62,-168 405.62,-136 523.62,-136 523.62,-168"/>
<text xml:space="preserve" text-anchor="start" x="413.62" y="-154.5" font-family="Helvetica,sans-Serif" font-size="10.00">interface/driver_stts22h</text>
<text xml:space="preserve" text-anchor="middle" x="464.62" y="-142.5" font-family="Helvetica,sans-Serif" font-size="10.00">_interface.h</text>
</a>
</g>
</g>
<!-- Node1&#45;&gt;Node2 -->
<g id="edge1_Node000001_Node000002" class="edge">
<title>Node1&#45;&gt;Node2</title>
<g id="a_edge1_Node000001_Node000002"><a xlink:title=" ">
<path fill="none" stroke="#63b8ff" d="M510.47,-195.98C501.2,-187.29 490.02,-176.81 481.02,-168.37"/>
<polygon fill="#63b8ff" stroke="#63b8ff" points="507.83,-198.3 517.52,-202.59 512.62,-193.2 507.83,-198.3"/>
</a>
</g>
</g>
<!-- Node16 -->
<g id="Node000016" class="node">
<title>Node16</title>
<g id="a_Node000016"><a xlink:href="driver__stts22h_8c.html" target="_top" xlink:title="driver stts22h source file">
<polygon fill="white" stroke="#666666" points="643.75,-162 541.5,-162 541.5,-142 643.75,-142 643.75,-162"/>
<text xml:space="preserve" text-anchor="middle" x="592.62" y="-148.5" font-family="Helvetica,sans-Serif" font-size="10.00">src/driver_stts22h.c</text>
</a>
</g>
</g>
<!-- Node1&#45;&gt;Node16 -->
<g id="edge15_Node000001_Node000016" class="edge">
<title>Node1&#45;&gt;Node16</title>
<g id="a_edge15_Node000001_Node000016"><a xlink:title=" ">
<path fill="none" stroke="#63b8ff" d="M546.86,-195.9C558.59,-184.91 573.37,-171.05 582.9,-162.11"/>
<polygon fill="#63b8ff" stroke="#63b8ff" points="544.63,-193.2 539.73,-202.59 549.42,-198.3 544.63,-193.2"/>
</a>
</g>
</g>
<!-- Node3 -->
<g id="Node000003" class="node">
<title>Node3</title>
<g id="a_Node000003"><a xlink:href="driver__stts22h__basic_8h.html" target="_top" xlink:title="driver stts22h basic header file">
<polygon fill="white" stroke="#666666" points="117.25,-100 0,-100 0,-68 117.25,-68 117.25,-100"/>
<text xml:space="preserve" text-anchor="start" x="8" y="-86.5" font-family="Helvetica,sans-Serif" font-size="10.00">example/driver_stts22h</text>
<text xml:space="preserve" text-anchor="middle" x="58.62" y="-74.5" font-family="Helvetica,sans-Serif" font-size="10.00">_basic.h</text>
</a>
</g>
</g>
<!-- Node2&#45;&gt;Node3 -->
<g id="edge2_Node000002_Node000003" class="edge">
<title>Node2&#45;&gt;Node3</title>
<g id="a_edge2_Node000002_Node000003"><a xlink:title=" ">
<path fill="none" stroke="#63b8ff" d="M394.2,-141.89C325.47,-132.65 218.03,-117.27 125.62,-100 122.93,-99.5 120.18,-98.96 117.4,-98.41"/>
<polygon fill="#63b8ff" stroke="#63b8ff" points="393.44,-145.32 403.82,-143.17 394.37,-138.38 393.44,-145.32"/>
</a>
</g>
</g>
<!-- Node5 -->
<g id="Node000005" class="node">
<title>Node5</title>
<g id="a_Node000005"><a xlink:href="driver__stts22h__interrupt_8h.html" target="_top" xlink:title="driver stts22h interrupt header file">
<polygon fill="white" stroke="#666666" points="252.25,-100 135,-100 135,-68 252.25,-68 252.25,-100"/>
<text xml:space="preserve" text-anchor="start" x="143" y="-86.5" font-family="Helvetica,sans-Serif" font-size="10.00">example/driver_stts22h</text>
<text xml:space="preserve" text-anchor="middle" x="193.62" y="-74.5" font-family="Helvetica,sans-Serif" font-size="10.00">_interrupt.h</text>
</a>
</g>
</g>
<!-- Node2&#45;&gt;Node5 -->
<g id="edge4_Node000002_Node000005" class="edge">
<title>Node2&#45;&gt;Node5</title>
<g id="a_edge4_Node000002_Node000005"><a xlink:title=" ">
<path fill="none" stroke="#63b8ff" d="M394.23,-133.86C350.21,-123.13 294.15,-109.48 252.49,-99.34"/>
<polygon fill="#63b8ff" stroke="#63b8ff" points="393.14,-137.19 403.68,-136.16 394.79,-130.39 393.14,-137.19"/>
</a>
</g>
</g>
<!-- Node7 -->
<g id="Node000007" class="node">
<title>Node7</title>
<g id="a_Node000007"><a xlink:href="driver__stts22h__shot_8h.html" target="_top" xlink:title="driver stts22h shot header file">
<polygon fill="white" stroke="#666666" points="387.25,-100 270,-100 270,-68 387.25,-68 387.25,-100"/>
<text xml:space="preserve" text-anchor="start" x="278" y="-86.5" font-family="Helvetica,sans-Serif" font-size="10.00">example/driver_stts22h</text>
<text xml:space="preserve" text-anchor="middle" x="328.62" y="-74.5" font-family="Helvetica,sans-Serif" font-size="10.00">_shot.h</text>
</a>
</g>
</g>
<!-- Node2&#45;&gt;Node7 -->
<g id="edge6_Node000002_Node000007" class="edge">
<title>Node2&#45;&gt;Node7</title>
<g id="a_edge6_Node000002_Node000007"><a xlink:title=" ">
<path fill="none" stroke="#63b8ff" d="M422.6,-130.61C402.51,-120.86 378.86,-109.38 360.31,-100.38"/>
<polygon fill="#63b8ff" stroke="#63b8ff" points="420.85,-133.65 431.38,-134.87 423.91,-127.35 420.85,-133.65"/>
</a>
</g>
</g>
<!-- Node9 -->
<g id="Node000009" class="node">
<title>Node9</title>
<g id="a_Node000009"><a xlink:href="driver__stts22h__interface__template_8c.html" target="_top" xlink:title="driver stts22h interface template source file">
<polygon fill="white" stroke="#666666" points="523.62,-100 405.62,-100 405.62,-68 523.62,-68 523.62,-100"/>
<text xml:space="preserve" text-anchor="start" x="413.62" y="-86.5" font-family="Helvetica,sans-Serif" font-size="10.00">interface/driver_stts22h</text>
<text xml:space="preserve" text-anchor="middle" x="464.62" y="-74.5" font-family="Helvetica,sans-Serif" font-size="10.00">_interface_template.c</text>
</a>
</g>
</g>
<!-- Node2&#45;&gt;Node9 -->
<g id="edge8_Node000002_Node000009" class="edge">
<title>Node2&#45;&gt;Node9</title>
<g id="a_edge8_Node000002_Node000009"><a xlink:title=" ">
<path fill="none" stroke="#63b8ff" d="M464.62,-124.31C464.62,-116.12 464.62,-107.38 464.62,-100.22"/>
<polygon fill="#63b8ff" stroke="#63b8ff" points="461.13,-124.18 464.63,-134.18 468.13,-124.18 461.13,-124.18"/>
</a>
</g>
</g>
<!-- Node10 -->
<g id="Node000010" class="node">
<title>Node10</title>
<g id="a_Node000010"><a xlink:href="driver__stts22h__interrupt__test_8h.html" target="_top" xlink:title="driver stts22h interrupt test header file">
<polygon fill="white" stroke="#666666" points="639.12,-100 542.12,-100 542.12,-68 639.12,-68 639.12,-100"/>
<text xml:space="preserve" text-anchor="start" x="550.12" y="-86.5" font-family="Helvetica,sans-Serif" font-size="10.00">test/driver_stts22h</text>
<text xml:space="preserve" text-anchor="middle" x="590.62" y="-74.5" font-family="Helvetica,sans-Serif" font-size="10.00">_interrupt_test.h</text>
</a>
</g>
</g>
<!-- Node2&#45;&gt;Node10 -->
<g id="edge9_Node000002_Node000010" class="edge">
<title>Node2&#45;&gt;Node10</title>
<g id="a_edge9_Node000002_Node000010"><a xlink:title=" ">
<path fill="none" stroke="#63b8ff" d="M504.33,-130.2C522.77,-120.54 544.32,-109.26 561.27,-100.38"/>
<polygon fill="#63b8ff" stroke="#63b8ff" points="502.74,-127.08 495.51,-134.82 505.99,-133.28 502.74,-127.08"/>
</a>
</g>
</g>
<!-- Node12 -->
<g id="Node000012" class="node">
<title>Node12</title>
<g id="a_Node000012"><a xlink:href="driver__stts22h__read__test_8h.html" target="_top" xlink:title="driver stts22h read test header file">
<polygon fill="white" stroke="#666666" points="754.12,-100 657.12,-100 657.12,-68 754.12,-68 754.12,-100"/>
<text xml:space="preserve" text-anchor="start" x="665.12" y="-86.5" font-family="Helvetica,sans-Serif" font-size="10.00">test/driver_stts22h</text>
<text xml:space="preserve" text-anchor="middle" x="705.62" y="-74.5" font-family="Helvetica,sans-Serif" font-size="10.00">_read_test.h</text>
</a>
</g>
</g>
<!-- Node2&#45;&gt;Node12 -->
<g id="edge11_Node000002_Node000012" class="edge">
<title>Node2&#45;&gt;Node12</title>
<g id="a_edge11_Node000002_Node000012"><a xlink:title=" ">
<path fill="none" stroke="#63b8ff" d="M532.04,-132.54C571.68,-121.68 620.91,-108.2 656.81,-98.37"/>
<polygon fill="#63b8ff" stroke="#63b8ff" points="531.31,-129.11 522.59,-135.13 533.16,-135.86 531.31,-129.11"/>
</a>
</g>
</g>
<!-- Node14 -->
<g id="Node000014" class="node">
<title>Node14</title>
<g id="a_Node000014"><a xlink:href="driver__stts22h__register__test_8h.html" target="_top" xlink:title="driver stts22h register test header file">
<polygon fill="white" stroke="#666666" points="869.12,-100 772.12,-100 772.12,-68 869.12,-68 869.12,-100"/>
<text xml:space="preserve" text-anchor="start" x="780.12" y="-86.5" font-family="Helvetica,sans-Serif" font-size="10.00">test/driver_stts22h</text>
<text xml:space="preserve" text-anchor="middle" x="820.62" y="-74.5" font-family="Helvetica,sans-Serif" font-size="10.00">_register_test.h</text>
</a>
</g>
</g>
<!-- Node2&#45;&gt;Node14 -->
<g id="edge13_Node000002_Node000014" class="edge">
<title>Node2&#45;&gt;Node14</title>
<g id="a_edge13_Node000002_Node000014"><a xlink:title=" ">
<path fill="none" stroke="#63b8ff" d="M535,-135.64C636.69,-117.07 665.39,-120.52 763.62,-100 766.33,-99.43 769.1,-98.82 771.89,-98.18"/>
<polygon fill="#63b8ff" stroke="#63b8ff" points="534.6,-132.15 525.41,-137.42 535.88,-139.03 534.6,-132.15"/>
</a>
</g>
</g>
<!-- Node4 -->
<g id="Node000004" class="node">
<title>Node4</title>
<g id="a_Node000004"><a xlink:href="driver__stts22h__basic_8c.html" target="_top" xlink:title="driver stts22h basic source file">
<polygon fill="white" stroke="#666666" points="117.25,-32 0,-32 0,0 117.25,0 117.25,-32"/>
<text xml:space="preserve" text-anchor="start" x="8" y="-18.5" font-family="Helvetica,sans-Serif" font-size="10.00">example/driver_stts22h</text>
<text xml:space="preserve" text-anchor="middle" x="58.62" y="-6.5" font-family="Helvetica,sans-Serif" font-size="10.00">_basic.c</text>
</a>
</g>
</g>
<!-- Node3&#45;&gt;Node4 -->
<g id="edge3_Node000003_Node000004" class="edge">
<title>Node3&#45;&gt;Node4</title>
<g id="a_edge3_Node000003_Node000004"><a xlink:title=" ">
<path fill="none" stroke="#63b8ff" d="M58.62,-56.31C58.62,-48.12 58.62,-39.38 58.62,-32.22"/>
<polygon fill="#63b8ff" stroke="#63b8ff" points="55.13,-56.18 58.63,-66.18 62.13,-56.18 55.13,-56.18"/>
</a>
</g>
</g>
<!-- Node6 -->
<g id="Node000006" class="node">
<title>Node6</title>
<g id="a_Node000006"><a xlink:href="driver__stts22h__interrupt_8c.html" target="_top" xlink:title="driver stts22h interrupt source file">
<polygon fill="white" stroke="#666666" points="252.25,-32 135,-32 135,0 252.25,0 252.25,-32"/>
<text xml:space="preserve" text-anchor="start" x="143" y="-18.5" font-family="Helvetica,sans-Serif" font-size="10.00">example/driver_stts22h</text>
<text xml:space="preserve" text-anchor="middle" x="193.62" y="-6.5" font-family="Helvetica,sans-Serif" font-size="10.00">_interrupt.c</text>
</a>
</g>
</g>
<!-- Node5&#45;&gt;Node6 -->
<g id="edge5_Node000005_Node000006" class="edge">
<title>Node5&#45;&gt;Node6</title>
<g id="a_edge5_Node000005_Node000006"><a xlink:title=" ">
<path fill="none" stroke="#63b8ff" d="M193.62,-56.31C193.62,-48.12 193.62,-39.38 193.62,-32.22"/>
<polygon fill="#63b8ff" stroke="#63b8ff" points="190.13,-56.18 193.63,-66.18 197.13,-56.18 190.13,-56.18"/>
</a>
</g>
</g>
<!-- Node8 -->
<g id="Node000008" class="node">
<title>Node8</title>
<g id="a_Node000008"><a xlink:href="driver__stts22h__shot_8c.html" target="_top" xlink:title="driver stts22h shot source file">
<polygon fill="white" stroke="#666666" points="387.25,-32 270,-32 270,0 387.25,0 387.25,-32"/>
<text xml:space="preserve" text-anchor="start" x="278" y="-18.5" font-family="Helvetica,sans-Serif" font-size="10.00">example/driver_stts22h</text>
<text xml:space="preserve" text-anchor="middle" x="328.62" y="-6.5" font-family="Helvetica,sans-Serif" font-size="10.00">_shot.c</text>
</a>
</g>
</g>
<!-- Node7&#45;&gt;Node8 -->
<g id="edge7_Node000007_Node000008" class="edge">
<title>Node7&#45;&gt;Node8</title>
<g id="a_edge7_Node000007_Node000008"><a xlink:title=" ">
<path fill="none" stroke="#63b8ff" d="M328.62,-56.31C328.62,-48.12 328.62,-39.38 328.62,-32.22"/>
<polygon fill="#63b8ff" stroke="#63b8ff" points="325.13,-56.18 328.63,-66.18 332.13,-56.18 325.13,-56.18"/>
</a>
</g>
</g>
<!-- Node11 -->
<g id="Node000011" class="node">
<title>Node11</title>
<g id="a_Node000011"><a xlink:href="driver__stts22h__interrupt__test_8c.html" target="_top" xlink:title="driver stts22h interrupt test source file">
<polygon fill="white" stroke="#666666" points="639.12,-32 542.12,-32 542.12,0 639.12,0 639.12,-32"/>
<text xml:space="preserve" text-anchor="start" x="550.12" y="-18.5" font-family="Helvetica,sans-Serif" font-size="10.00">test/driver_stts22h</text>
<text xml:space="preserve" text-anchor="middle" x="590.62" y="-6.5" font-family="Helvetica,sans-Serif" font-size="10.00">_interrupt_test.c</text>
</a>
</g>
</g>
<!-- Node10&#45;&gt;Node11 -->
<g id="edge10_Node000010_Node000011" class="edge">
<title>Node10&#45;&gt;Node11</title>
<g id="a_edge10_Node000010_Node000011"><a xlink:title=" ">
<path fill="none" stroke="#63b8ff" d="M590.62,-56.31C590.62,-48.12 590.62,-39.38 590.62,-32.22"/>
<polygon fill="#63b8ff" stroke="#63b8ff" points="587.13,-56.18 590.63,-66.18 594.13,-56.18 587.13,-56.18"/>
</a>
</g>
</g>
<!-- Node13 -->
<g id="Node000013" class="node">
<title>Node13</title>
<g id="a_Node000013"><a xlink:href="driver__stts22h__read__test_8c.html" target="_top" xlink:title="driver stts22h read test source file">
<polygon fill="white" stroke="#666666" points="754.12,-32 657.12,-32 657.12,0 754.12,0 754.12,-32"/>
<text xml:space="preserve" text-anchor="start" x="665.12" y="-18.5" font-family="Helvetica,sans-Serif" font-size="10.00">test/driver_stts22h</text>
<text xml:space="preserve" text-anchor="middle" x="705.62" y="-6.5" font-family="Helvetica,sans-Serif" font-size="10.00">_read_test.c</text>
</a>
</g>
</g>
<!-- Node12&#45;&gt;Node13 -->
<g id="edge12_Node000012_Node000013" class="edge">
<title>Node12&#45;&gt;Node13</title>
<g id="a_edge12_Node000012_Node000013"><a xlink:title=" ">
<path fill="none" stroke="#63b8ff" d="M705.62,-56.31C705.62,-48.12 705.62,-39.38 705.62,-32.22"/>
<polygon fill="#63b8ff" stroke="#63b8ff" points="702.13,-56.18 705.63,-66.18 709.13,-56.18 702.13,-56.18"/>
</a>
</g>
</g>
<!-- Node15 -->
<g id="Node000015" class="node">
<title>Node15</title>
<g id="a_Node000015"><a xlink:href="driver__stts22h__register__test_8c.html" target="_top" xlink:title="driver stts22h register test source file">
<polygon fill="white" stroke="#666666" points="869.12,-32 772.12,-32 772.12,0 869.12,0 869.12,-32"/>
<text xml:space="preserve" text-anchor="start" x="780.12" y="-18.5" font-family="Helvetica,sans-Serif" font-size="10.00">test/driver_stts22h</text>
<text xml:space="preserve" text-anchor="middle" x="820.62" y="-6.5" font-family="Helvetica,sans-Serif" font-size="10.00">_register_test.c</text>
</a>
</g>
</g>
<!-- Node14&#45;&gt;Node15 -->
<g id="edge14_Node000014_Node000015" class="edge">
<title>Node14&#45;&gt;Node15</title>
<g id="a_edge14_Node000014_Node000015"><a xlink:title=" ">
<path fill="none" stroke="#63b8ff" d="M820.62,-56.31C820.62,-48.12 820.62,-39.38 820.62,-32.22"/>
<polygon fill="#63b8ff" stroke="#63b8ff" points="817.13,-56.18 820.63,-66.18 824.13,-56.18 817.13,-56.18"/>
</a>
</g>
</g>
</g>
</svg>
