<?xml version="1.0" encoding="UTF-8" standalone="no"?>
<!DOCTYPE svg PUBLIC "-//W3C//DTD SVG 1.1//EN"
 "http://www.w3.org/Graphics/SVG/1.1/DTD/svg11.dtd">
<!-- Generated by graphviz version 14.1.1 (20251213.1925)
 -->
<!-- Title: stts22h_basic_deinit Pages: 1 -->
<svg width="298pt" height="66pt"
 viewBox="0.00 0.00 298.00 66.00" xmlns="http://www.w3.org/2000/svg" xmlns:xlink="http://www.w3.org/1999/xlink">
<g id="graph0" class="graph" transform="scale(1 1) rotate(0) translate(4 62)">
<title>stts22h_basic_deinit</title>
<!-- Node1 -->
<g id="Node000001" class="node">
<title>Node1</title>
<g id="a_Node000001"><a xlink:title="basic example deinit">
<polygon fill="#999999" stroke="#666666" points="105.25,-39 0,-39 0,-19 105.25,-19 105.25,-39"/>
<text xml:space="preserve" text-anchor="middle" x="52.62" y="-25.5" font-family="Helvetica,sans-Serif" font-size="10.00">stts22h_basic_deinit</text>
</a>
</g>
</g>
<!-- Node2 -->
<g id="Node000002" class="node">
<title>Node2</title>
<g id="a_Node000002"><a xlink:href="group__stts22h__base__driver.html#ga6c3974950917c8be71f019d8f1135063" target="_top" xlink:title="close the chip">
<polygon fill="white" stroke="#666666" points="254,-58 177.25,-58 177.25,-38 254,-38 254,-58"/>
<text xml:space="preserve" text-anchor="middle" x="215.62" y="-44.5" font-family="Helvetica,sans-Serif" font-size="10.00">stts22h_deinit</text>
</a>
</g>
</g>
<!-- Node1&#45;&gt;Node2 -->
<g id="edge1_Node000001_Node000002" class="edge">
<title>Node1&#45;&gt;Node2</title>
<g id="a_edge1_Node000001_Node000002"><a xlink:title=" ">
<path fill="none" stroke="#63b8ff" d="M105.45,-35.12C124.71,-37.39 146.49,-39.96 165.5,-42.2"/>
<polygon fill="#63b8ff" stroke="#63b8ff" points="165.09,-45.68 175.43,-43.37 165.91,-38.73 165.09,-45.68"/>
</a>
</g>
</g>
<!-- Node3 -->
<g id="Node000003" class="node">
<title>Node3</title>
<g id="a_Node000003"><a xlink:href="group__stts22h__base__driver.html#ga3752c6fa7295a5df3925195dbe743e5d" target="_top" xlink:title="stop the chip reading">
<polygon fill="white" stroke="#666666" points="290,-20 141.25,-20 141.25,0 290,0 290,-20"/>
<text xml:space="preserve" text-anchor="middle" x="215.62" y="-6.5" font-family="Helvetica,sans-Serif" font-size="10.00">stts22h_stop_continuous_read</text>
</a>
</g>
</g>
<!-- Node1&#45;&gt;Node3 -->
<g id="edge2_Node000001_Node000003" class="edge">
<title>Node1&#45;&gt;Node3</title>
<g id="a_edge2_Node000001_Node000003"><a xlink:title=" ">
<path fill="none" stroke="#63b8ff" d="M105.45,-22.88C113.23,-21.97 121.41,-21 129.66,-20.03"/>
<polygon fill="#63b8ff" stroke="#63b8ff" points="129.88,-23.52 139.4,-18.88 129.06,-16.57 129.88,-23.52"/>
</a>
</g>
</g>
</g>
</svg>
