<?xml version="1.0" encoding="UTF-8" standalone="no"?>
<!DOCTYPE svg PUBLIC "-//W3C//DTD SVG 1.1//EN"
 "http://www.w3.org/Graphics/SVG/1.1/DTD/svg11.dtd">
<!-- Generated by graphviz version 14.1.1 (20251213.1925)
 -->
<!-- Title: stts22h_interrupt_init Pages: 1 -->
<svg width="300pt" height="756pt"
 viewBox="0.00 0.00 300.00 756.00" xmlns="http://www.w3.org/2000/svg" xmlns:xlink="http://www.w3.org/1999/xlink">
<g id="graph0" class="graph" transform="scale(1 1) rotate(0) translate(4 752)">
<title>stts22h_interrupt_init</title>
<!-- Node1 -->
<g id="Node000001" class="node">
<title>Node1</title>
<g id="a_Node000001"><a xlink:title="interrupt example init">
<polygon fill="#999999" stroke="#666666" points="106.75,-408 0,-408 0,-388 106.75,-388 106.75,-408"/>
<text xml:space="preserve" text-anchor="middle" x="53.38" y="-394.5" font-family="Helvetica,sans-Serif" font-size="10.00">stts22h_interrupt_init</text>
</a>
</g>
</g>
<!-- Node2 -->
<g id="Node000002" class="node">
<title>Node2</title>
<g id="a_Node000002"><a xlink:href="group__stts22h__base__driver.html#ga6c3974950917c8be71f019d8f1135063" target="_top" xlink:title="close the chip">
<polygon fill="white" stroke="#666666" points="255.88,-748 179.12,-748 179.12,-728 255.88,-728 255.88,-748"/>
<text xml:space="preserve" text-anchor="middle" x="217.5" y="-734.5" font-family="Helvetica,sans-Serif" font-size="10.00">stts22h_deinit</text>
</a>
</g>
</g>
<!-- Node1&#45;&gt;Node2 -->
<g id="edge1_Node000001_Node000002" class="edge">
<title>Node1&#45;&gt;Node2</title>
<g id="a_edge1_Node000001_Node000002"><a xlink:title=" ">
<path fill="none" stroke="#63b8ff" d="M55.81,-408.3C62.96,-458.09 96.18,-673.2 142.75,-719 149.66,-725.8 158.66,-730.26 167.99,-733.17"/>
<polygon fill="#63b8ff" stroke="#63b8ff" points="166.96,-736.52 177.51,-735.55 168.66,-729.73 166.96,-736.52"/>
</a>
</g>
</g>
<!-- Node3 -->
<g id="Node000003" class="node">
<title>Node3</title>
<g id="a_Node000003"><a xlink:href="group__stts22h__base__driver.html#ga04e2519a7ad227c2e7a96bf8204dfc89" target="_top" xlink:title="initialize the chip">
<polygon fill="white" stroke="#666666" points="250.62,-710 184.38,-710 184.38,-690 250.62,-690 250.62,-710"/>
<text xml:space="preserve" text-anchor="middle" x="217.5" y="-696.5" font-family="Helvetica,sans-Serif" font-size="10.00">stts22h_init</text>
</a>
</g>
</g>
<!-- Node1&#45;&gt;Node3 -->
<g id="edge2_Node000001_Node000003" class="edge">
<title>Node1&#45;&gt;Node3</title>
<g id="a_edge2_Node000001_Node000003"><a xlink:title=" ">
<path fill="none" stroke="#63b8ff" d="M54.26,-408.31C54.37,-449.36 60.49,-602.8 142.75,-681 150.93,-688.78 161.85,-693.48 172.78,-696.29"/>
<polygon fill="#63b8ff" stroke="#63b8ff" points="172.07,-699.72 182.57,-698.29 173.47,-692.86 172.07,-699.72"/>
</a>
</g>
</g>
<!-- Node4 -->
<g id="Node000004" class="node">
<title>Node4</title>
<g id="a_Node000004"><a xlink:href="group__stts22h__interface__driver.html#gadeca3998d60b782109b087fd17177add" target="_top" xlink:title="interface print format data">
<polygon fill="white" stroke="#666666" points="278.75,-672 156.25,-672 156.25,-640 278.75,-640 278.75,-672"/>
<text xml:space="preserve" text-anchor="start" x="164.25" y="-658.5" font-family="Helvetica,sans-Serif" font-size="10.00">stts22h_interface_debug</text>
<text xml:space="preserve" text-anchor="middle" x="217.5" y="-646.5" font-family="Helvetica,sans-Serif" font-size="10.00">_print</text>
</a>
</g>
</g>
<!-- Node1&#45;&gt;Node4 -->
<g id="edge3_Node000001_Node000004" class="edge">
<title>Node1&#45;&gt;Node4</title>
<g id="a_edge3_Node000001_Node000004"><a xlink:title=" ">
<path fill="none" stroke="#63b8ff" d="M55.2,-408.04C58.67,-443.72 75.19,-565.81 142.75,-631 143.97,-632.17 145.24,-633.29 146.56,-634.36"/>
<polygon fill="#63b8ff" stroke="#63b8ff" points="144.4,-637.12 154.65,-639.81 148.31,-631.32 144.4,-637.12"/>
</a>
</g>
</g>
<!-- Node5 -->
<g id="Node000005" class="node">
<title>Node5</title>
<g id="a_Node000005"><a xlink:href="group__stts22h__interface__driver.html#ga0f697c932b857e166176d1e0966300f9" target="_top" xlink:title="interface delay ms">
<polygon fill="white" stroke="#666666" points="286.62,-622 148.38,-622 148.38,-602 286.62,-602 286.62,-622"/>
<text xml:space="preserve" text-anchor="middle" x="217.5" y="-608.5" font-family="Helvetica,sans-Serif" font-size="10.00">stts22h_interface_delay_ms</text>
</a>
</g>
</g>
<!-- Node1&#45;&gt;Node5 -->
<g id="edge4_Node000001_Node000005" class="edge">
<title>Node1&#45;&gt;Node5</title>
<g id="a_edge4_Node000001_Node000005"><a xlink:title=" ">
<path fill="none" stroke="#63b8ff" d="M55.89,-408.35C61.21,-440.9 82.13,-542.08 142.75,-593 143.89,-593.96 145.07,-594.87 146.29,-595.73"/>
<polygon fill="#63b8ff" stroke="#63b8ff" points="144.52,-598.75 154.93,-600.75 148.04,-592.7 144.52,-598.75"/>
</a>
</g>
</g>
<!-- Node6 -->
<g id="Node000006" class="node">
<title>Node6</title>
<g id="a_Node000006"><a xlink:href="group__stts22h__interface__driver.html#ga00a9965ef08abdef89017558fc24067f" target="_top" xlink:title="interface iic bus deinit">
<polygon fill="white" stroke="#666666" points="270.5,-584 164.5,-584 164.5,-552 270.5,-552 270.5,-584"/>
<text xml:space="preserve" text-anchor="start" x="172.5" y="-570.5" font-family="Helvetica,sans-Serif" font-size="10.00">stts22h_interface_iic</text>
<text xml:space="preserve" text-anchor="middle" x="217.5" y="-558.5" font-family="Helvetica,sans-Serif" font-size="10.00">_deinit</text>
</a>
</g>
</g>
<!-- Node1&#45;&gt;Node6 -->
<g id="edge5_Node000001_Node000006" class="edge">
<title>Node1&#45;&gt;Node6</title>
<g id="a_edge5_Node000001_Node000006"><a xlink:title=" ">
<path fill="none" stroke="#63b8ff" d="M57.88,-408.47C67.28,-434.97 95.57,-505.23 142.75,-543 146.21,-545.77 150,-548.25 153.97,-550.45"/>
<polygon fill="#63b8ff" stroke="#63b8ff" points="152.25,-553.51 162.78,-554.73 155.31,-547.21 152.25,-553.51"/>
</a>
</g>
</g>
<!-- Node7 -->
<g id="Node000007" class="node">
<title>Node7</title>
<g id="a_Node000007"><a xlink:href="group__stts22h__interface__driver.html#gae589cb2920e761d274c9b80f23060538" target="_top" xlink:title="interface iic bus init">
<polygon fill="white" stroke="#666666" points="279.5,-534 155.5,-534 155.5,-514 279.5,-514 279.5,-534"/>
<text xml:space="preserve" text-anchor="middle" x="217.5" y="-520.5" font-family="Helvetica,sans-Serif" font-size="10.00">stts22h_interface_iic_init</text>
</a>
</g>
</g>
<!-- Node1&#45;&gt;Node7 -->
<g id="edge6_Node000001_Node000007" class="edge">
<title>Node1&#45;&gt;Node7</title>
<g id="a_edge6_Node000001_Node000007"><a xlink:title=" ">
<path fill="none" stroke="#63b8ff" d="M59.91,-408.37C71.95,-429.9 102.7,-479.54 142.75,-505 145.14,-506.52 147.65,-507.92 150.24,-509.21"/>
<polygon fill="#63b8ff" stroke="#63b8ff" points="148.59,-512.31 159.16,-513.04 151.35,-505.88 148.59,-512.31"/>
</a>
</g>
</g>
<!-- Node8 -->
<g id="Node000008" class="node">
<title>Node8</title>
<g id="a_Node000008"><a xlink:href="group__stts22h__interface__driver.html#gaf01777312f90ef24034bf82f3e6db6d7" target="_top" xlink:title="interface iic bus read">
<polygon fill="white" stroke="#666666" points="282.5,-496 152.5,-496 152.5,-476 282.5,-476 282.5,-496"/>
<text xml:space="preserve" text-anchor="middle" x="217.5" y="-482.5" font-family="Helvetica,sans-Serif" font-size="10.00">stts22h_interface_iic_read</text>
</a>
</g>
</g>
<!-- Node1&#45;&gt;Node8 -->
<g id="edge7_Node000001_Node000008" class="edge">
<title>Node1&#45;&gt;Node8</title>
<g id="a_edge7_Node000001_Node000008"><a xlink:title=" ">
<path fill="none" stroke="#63b8ff" d="M64.55,-408.29C80.05,-423.39 111.14,-451.44 142.75,-467 146.4,-468.8 150.25,-470.44 154.18,-471.94"/>
<polygon fill="#63b8ff" stroke="#63b8ff" points="152.71,-475.13 163.31,-475.07 154.99,-468.51 152.71,-475.13"/>
</a>
</g>
</g>
<!-- Node9 -->
<g id="Node000009" class="node">
<title>Node9</title>
<g id="a_Node000009"><a xlink:href="group__stts22h__interface__driver.html#gabcb8632a70020a5817d55163d68ef870" target="_top" xlink:title="interface iic bus write">
<polygon fill="white" stroke="#666666" points="270.5,-458 164.5,-458 164.5,-426 270.5,-426 270.5,-458"/>
<text xml:space="preserve" text-anchor="start" x="172.5" y="-444.5" font-family="Helvetica,sans-Serif" font-size="10.00">stts22h_interface_iic</text>
<text xml:space="preserve" text-anchor="middle" x="217.5" y="-432.5" font-family="Helvetica,sans-Serif" font-size="10.00">_write</text>
</a>
</g>
</g>
<!-- Node1&#45;&gt;Node9 -->
<g id="edge8_Node000001_Node000009" class="edge">
<title>Node1&#45;&gt;Node9</title>
<g id="a_edge8_Node000001_Node000009"><a xlink:title=" ">
<path fill="none" stroke="#63b8ff" d="M92.8,-408.43C110.89,-413.34 132.95,-419.33 153.41,-424.88"/>
<polygon fill="#63b8ff" stroke="#63b8ff" points="152.22,-428.18 162.79,-427.42 154.05,-421.43 152.22,-428.18"/>
</a>
</g>
</g>
<!-- Node10 -->
<g id="Node000010" class="node">
<title>Node10</title>
<g id="a_Node000010"><a xlink:href="group__stts22h__base__driver.html#ga5d494bb54199b3933c051461db80bfb7" target="_top" xlink:title="set the iic address pin">
<polygon fill="white" stroke="#666666" points="272,-408 163,-408 163,-388 272,-388 272,-408"/>
<text xml:space="preserve" text-anchor="middle" x="217.5" y="-394.5" font-family="Helvetica,sans-Serif" font-size="10.00">stts22h_set_addr_pin</text>
</a>
</g>
</g>
<!-- Node1&#45;&gt;Node10 -->
<g id="edge9_Node000001_Node000010" class="edge">
<title>Node1&#45;&gt;Node10</title>
<g id="a_edge9_Node000001_Node000010"><a xlink:title=" ">
<path fill="none" stroke="#63b8ff" d="M107.01,-398C121.23,-398 136.79,-398 151.6,-398"/>
<polygon fill="#63b8ff" stroke="#63b8ff" points="151.22,-401.5 161.22,-398 151.22,-394.5 151.22,-401.5"/>
</a>
</g>
</g>
<!-- Node11 -->
<g id="Node000011" class="node">
<title>Node11</title>
<g id="a_Node000011"><a xlink:href="group__stts22h__base__driver.html#gab26ef8822e79a09c70823d009476e036" target="_top" xlink:title="enable or disable block data update">
<polygon fill="white" stroke="#666666" points="277.25,-370 157.75,-370 157.75,-338 277.25,-338 277.25,-370"/>
<text xml:space="preserve" text-anchor="start" x="165.75" y="-356.5" font-family="Helvetica,sans-Serif" font-size="10.00">stts22h_set_block_data</text>
<text xml:space="preserve" text-anchor="middle" x="217.5" y="-344.5" font-family="Helvetica,sans-Serif" font-size="10.00">_update</text>
</a>
</g>
</g>
<!-- Node1&#45;&gt;Node11 -->
<g id="edge10_Node000001_Node000011" class="edge">
<title>Node1&#45;&gt;Node11</title>
<g id="a_edge10_Node000001_Node000011"><a xlink:title=" ">
<path fill="none" stroke="#63b8ff" d="M92.8,-387.57C108.85,-383.22 128.01,-378.02 146.41,-373.02"/>
<polygon fill="#63b8ff" stroke="#63b8ff" points="147.23,-376.43 155.97,-370.43 145.4,-369.67 147.23,-376.43"/>
</a>
</g>
</g>
<!-- Node12 -->
<g id="Node000012" class="node">
<title>Node12</title>
<g id="a_Node000012"><a xlink:href="group__stts22h__base__driver.html#gabc8da8ca92e5279664bda4b7373e7ab4" target="_top" xlink:title="enable or disable disable smbus timeout">
<polygon fill="white" stroke="#666666" points="269,-320 166,-320 166,-288 269,-288 269,-320"/>
<text xml:space="preserve" text-anchor="start" x="174" y="-306.5" font-family="Helvetica,sans-Serif" font-size="10.00">stts22h_set_disable</text>
<text xml:space="preserve" text-anchor="middle" x="217.5" y="-294.5" font-family="Helvetica,sans-Serif" font-size="10.00">_smbus_timeout</text>
</a>
</g>
</g>
<!-- Node1&#45;&gt;Node12 -->
<g id="edge11_Node000001_Node000012" class="edge">
<title>Node1&#45;&gt;Node12</title>
<g id="a_edge11_Node000001_Node000012"><a xlink:title=" ">
<path fill="none" stroke="#63b8ff" d="M65.23,-387.52C81.1,-372.69 112.09,-345.55 142.75,-329 146.65,-326.89 150.77,-324.92 154.98,-323.07"/>
<polygon fill="#63b8ff" stroke="#63b8ff" points="156.22,-326.34 164.16,-319.32 153.58,-319.86 156.22,-326.34"/>
</a>
</g>
</g>
<!-- Node13 -->
<g id="Node000013" class="node">
<title>Node13</title>
<g id="a_Node000013"><a xlink:href="group__stts22h__base__driver.html#ga4714057c593c9fe398f2cbbf26c5a121" target="_top" xlink:title="enable or disable iic address auto increment">
<polygon fill="white" stroke="#666666" points="278.38,-270 156.62,-270 156.62,-238 278.38,-238 278.38,-270"/>
<text xml:space="preserve" text-anchor="start" x="164.62" y="-256.5" font-family="Helvetica,sans-Serif" font-size="10.00">stts22h_set_iic_address</text>
<text xml:space="preserve" text-anchor="middle" x="217.5" y="-244.5" font-family="Helvetica,sans-Serif" font-size="10.00">_auto_increment</text>
</a>
</g>
</g>
<!-- Node1&#45;&gt;Node13 -->
<g id="edge12_Node000001_Node000013" class="edge">
<title>Node1&#45;&gt;Node13</title>
<g id="a_edge12_Node000001_Node000013"><a xlink:title=" ">
<path fill="none" stroke="#63b8ff" d="M59.24,-387.76C70.61,-364.89 101.15,-309.3 142.75,-279 144.29,-277.88 145.88,-276.8 147.52,-275.78"/>
<polygon fill="#63b8ff" stroke="#63b8ff" points="148.91,-279.01 155.98,-271.11 145.53,-272.88 148.91,-279.01"/>
</a>
</g>
</g>
<!-- Node14 -->
<g id="Node000014" class="node">
<title>Node14</title>
<g id="a_Node000014"><a xlink:href="group__stts22h__base__driver.html#ga6c336d8ea15d7d9d5449e083e1851f89" target="_top" xlink:title="set output data rate">
<polygon fill="white" stroke="#666666" points="267.12,-220 167.88,-220 167.88,-188 267.12,-188 267.12,-220"/>
<text xml:space="preserve" text-anchor="start" x="175.88" y="-206.5" font-family="Helvetica,sans-Serif" font-size="10.00">stts22h_set_output</text>
<text xml:space="preserve" text-anchor="middle" x="217.5" y="-194.5" font-family="Helvetica,sans-Serif" font-size="10.00">_data_rate</text>
</a>
</g>
</g>
<!-- Node1&#45;&gt;Node14 -->
<g id="edge13_Node000001_Node000014" class="edge">
<title>Node1&#45;&gt;Node14</title>
<g id="a_edge13_Node000001_Node000014"><a xlink:title=" ">
<path fill="none" stroke="#63b8ff" d="M56.9,-387.55C64.54,-358.16 90.18,-274 142.75,-229 147.13,-225.25 152.1,-222.06 157.34,-219.34"/>
<polygon fill="#63b8ff" stroke="#63b8ff" points="158.61,-222.6 166.28,-215.29 155.73,-216.22 158.61,-222.6"/>
</a>
</g>
</g>
<!-- Node15 -->
<g id="Node000015" class="node">
<title>Node15</title>
<g id="a_Node000015"><a xlink:href="group__stts22h__base__driver.html#ga4755d469461c830cb527735da9a76b58" target="_top" xlink:title="set temperature high limit">
<polygon fill="white" stroke="#666666" points="279.5,-170 155.5,-170 155.5,-138 279.5,-138 279.5,-170"/>
<text xml:space="preserve" text-anchor="start" x="163.5" y="-156.5" font-family="Helvetica,sans-Serif" font-size="10.00">stts22h_set_temperature</text>
<text xml:space="preserve" text-anchor="middle" x="217.5" y="-144.5" font-family="Helvetica,sans-Serif" font-size="10.00">_high_limit</text>
</a>
</g>
</g>
<!-- Node1&#45;&gt;Node15 -->
<g id="edge14_Node000001_Node000015" class="edge">
<title>Node1&#45;&gt;Node15</title>
<g id="a_edge14_Node000001_Node000015"><a xlink:title=" ">
<path fill="none" stroke="#63b8ff" d="M55.52,-387.61C59.89,-352.86 78.68,-239.54 142.75,-179 143.8,-178.01 144.89,-177.05 146.02,-176.14"/>
<polygon fill="#63b8ff" stroke="#63b8ff" points="147.72,-179.21 154.02,-170.69 143.78,-173.43 147.72,-179.21"/>
</a>
</g>
</g>
<!-- Node16 -->
<g id="Node000016" class="node">
<title>Node16</title>
<g id="a_Node000016"><a xlink:href="group__stts22h__base__driver.html#ga0da1d13fdb24608ed8e5d71d8d800519" target="_top" xlink:title="set temperature low limit">
<polygon fill="white" stroke="#666666" points="279.5,-120 155.5,-120 155.5,-88 279.5,-88 279.5,-120"/>
<text xml:space="preserve" text-anchor="start" x="163.5" y="-106.5" font-family="Helvetica,sans-Serif" font-size="10.00">stts22h_set_temperature</text>
<text xml:space="preserve" text-anchor="middle" x="217.5" y="-94.5" font-family="Helvetica,sans-Serif" font-size="10.00">_low_limit</text>
</a>
</g>
</g>
<!-- Node1&#45;&gt;Node16 -->
<g id="edge15_Node000001_Node000016" class="edge">
<title>Node1&#45;&gt;Node16</title>
<g id="a_edge15_Node000001_Node000016"><a xlink:title=" ">
<path fill="none" stroke="#63b8ff" d="M54.63,-387.56C56.17,-347.97 66.99,-205.48 142.75,-129 143.77,-127.97 144.83,-126.99 145.93,-126.05"/>
<polygon fill="#63b8ff" stroke="#63b8ff" points="147.66,-129.1 153.78,-120.45 143.6,-123.4 147.66,-129.1"/>
</a>
</g>
</g>
<!-- Node17 -->
<g id="Node000017" class="node">
<title>Node17</title>
<g id="a_Node000017"><a xlink:href="group__stts22h__base__driver.html#gad4f27de5a680d4b22b4f3e3f4e73806c" target="_top" xlink:title="start the chip reading">
<polygon fill="white" stroke="#666666" points="292.25,-70 142.75,-70 142.75,-50 292.25,-50 292.25,-70"/>
<text xml:space="preserve" text-anchor="middle" x="217.5" y="-56.5" font-family="Helvetica,sans-Serif" font-size="10.00">stts22h_start_continuous_read</text>
</a>
</g>
</g>
<!-- Node1&#45;&gt;Node17 -->
<g id="edge16_Node000001_Node000017" class="edge">
<title>Node1&#45;&gt;Node17</title>
<g id="a_edge16_Node000001_Node000017"><a xlink:title=" ">
<path fill="none" stroke="#63b8ff" d="M53.83,-387.64C52.11,-343.42 51.52,-168.59 142.75,-79 143.51,-78.25 144.3,-77.53 145.11,-76.83"/>
<polygon fill="#63b8ff" stroke="#63b8ff" points="147.03,-79.76 153.34,-71.25 143.1,-73.97 147.03,-79.76"/>
</a>
</g>
</g>
<!-- Node18 -->
<g id="Node000018" class="node">
<title>Node18</title>
<g id="a_Node000018"><a xlink:href="group__stts22h__base__driver.html#gac3ddb451ef21d2471c66b61a7d227b42" target="_top" xlink:title="convert the temperature to the register raw data">
<polygon fill="white" stroke="#666666" points="270.12,-32 164.88,-32 164.88,0 270.12,0 270.12,-32"/>
<text xml:space="preserve" text-anchor="start" x="172.88" y="-18.5" font-family="Helvetica,sans-Serif" font-size="10.00">stts22h_temperature</text>
<text xml:space="preserve" text-anchor="middle" x="217.5" y="-6.5" font-family="Helvetica,sans-Serif" font-size="10.00">_convert_to_register</text>
</a>
</g>
</g>
<!-- Node1&#45;&gt;Node18 -->
<g id="edge17_Node000001_Node000018" class="edge">
<title>Node1&#45;&gt;Node18</title>
<g id="a_edge17_Node000001_Node000018"><a xlink:title=" ">
<path fill="none" stroke="#63b8ff" d="M55.59,-387.7C62.01,-334.84 93.6,-94.47 142.75,-41 146.19,-37.26 150.21,-34.08 154.56,-31.37"/>
<polygon fill="#63b8ff" stroke="#63b8ff" points="155.94,-34.6 163.19,-26.88 152.7,-28.39 155.94,-34.6"/>
</a>
</g>
</g>
</g>
</svg>
