<?xml version="1.0" encoding="UTF-8" standalone="no"?>
<!DOCTYPE svg PUBLIC "-//W3C//DTD SVG 1.1//EN"
 "http://www.w3.org/Graphics/SVG/1.1/DTD/svg11.dtd">
<!-- Generated by graphviz version 14.1.1 (20251213.1925)
 -->
<!-- Title: stts22h_shot_init Pages: 1 -->
<svg width="431pt" height="606pt"
 viewBox="0.00 0.00 431.00 606.00" xmlns="http://www.w3.org/2000/svg" xmlns:xlink="http://www.w3.org/1999/xlink">
<g id="graph0" class="graph" transform="scale(1 1) rotate(0) translate(4 602)">
<title>stts22h_shot_init</title>
<!-- Node1 -->
<g id="Node000001" class="node">
<title>Node1</title>
<g id="a_Node000001"><a xlink:title="shot example init">
<polygon fill="#999999" stroke="#666666" points="90.25,-336 0,-336 0,-316 90.25,-316 90.25,-336"/>
<text xml:space="preserve" text-anchor="middle" x="45.12" y="-322.5" font-family="Helvetica,sans-Serif" font-size="10.00">stts22h_shot_init</text>
</a>
</g>
</g>
<!-- Node2 -->
<g id="Node000002" class="node">
<title>Node2</title>
<g id="a_Node000002"><a xlink:href="group__stts22h__base__driver.html#ga6c3974950917c8be71f019d8f1135063" target="_top" xlink:title="close the chip">
<polygon fill="white" stroke="#666666" points="233.75,-598 157,-598 157,-578 233.75,-578 233.75,-598"/>
<text xml:space="preserve" text-anchor="middle" x="195.38" y="-584.5" font-family="Helvetica,sans-Serif" font-size="10.00">stts22h_deinit</text>
</a>
</g>
</g>
<!-- Node1&#45;&gt;Node2 -->
<g id="edge1_Node000001_Node000002" class="edge">
<title>Node1&#45;&gt;Node2</title>
<g id="a_edge1_Node000001_Node000002"><a xlink:title=" ">
<path fill="none" stroke="#63b8ff" d="M46.27,-336.31C47.39,-373.53 56.36,-502.29 126.25,-569 131.8,-574.3 138.7,-578.14 145.96,-580.92"/>
<polygon fill="#63b8ff" stroke="#63b8ff" points="144.7,-584.2 155.29,-583.84 146.79,-577.52 144.7,-584.2"/>
</a>
</g>
</g>
<!-- Node3 -->
<g id="Node000003" class="node">
<title>Node3</title>
<g id="a_Node000003"><a xlink:href="group__stts22h__base__driver.html#ga04e2519a7ad227c2e7a96bf8204dfc89" target="_top" xlink:title="initialize the chip">
<polygon fill="white" stroke="#666666" points="228.5,-560 162.25,-560 162.25,-540 228.5,-540 228.5,-560"/>
<text xml:space="preserve" text-anchor="middle" x="195.38" y="-546.5" font-family="Helvetica,sans-Serif" font-size="10.00">stts22h_init</text>
</a>
</g>
</g>
<!-- Node1&#45;&gt;Node3 -->
<g id="edge2_Node000001_Node000003" class="edge">
<title>Node1&#45;&gt;Node3</title>
<g id="a_edge2_Node000001_Node000003"><a xlink:title=" ">
<path fill="none" stroke="#63b8ff" d="M47.28,-336.37C51.46,-369.02 68.73,-470.87 126.25,-526 133.14,-532.6 141.95,-537.4 150.93,-540.88"/>
<polygon fill="#63b8ff" stroke="#63b8ff" points="149.82,-544.2 160.41,-544.03 152.03,-537.56 149.82,-544.2"/>
</a>
</g>
</g>
<!-- Node4 -->
<g id="Node000004" class="node">
<title>Node4</title>
<g id="a_Node000004"><a xlink:href="group__stts22h__interface__driver.html#gadeca3998d60b782109b087fd17177add" target="_top" xlink:title="interface print format data">
<polygon fill="white" stroke="#666666" points="423,-399 300.5,-399 300.5,-367 423,-367 423,-399"/>
<text xml:space="preserve" text-anchor="start" x="308.5" y="-385.5" font-family="Helvetica,sans-Serif" font-size="10.00">stts22h_interface_debug</text>
<text xml:space="preserve" text-anchor="middle" x="361.75" y="-373.5" font-family="Helvetica,sans-Serif" font-size="10.00">_print</text>
</a>
</g>
</g>
<!-- Node1&#45;&gt;Node4 -->
<g id="edge3_Node000001_Node000004" class="edge">
<title>Node1&#45;&gt;Node4</title>
<g id="a_edge3_Node000001_Node000004"><a xlink:title=" ">
<path fill="none" stroke="#63b8ff" d="M47.36,-336.32C51.63,-366.84 68.82,-456.86 126.25,-493 178.25,-525.73 208.55,-518.39 264.5,-493 302.24,-475.87 331,-435.83 346.88,-409.08"/>
<polygon fill="#63b8ff" stroke="#63b8ff" points="349.84,-410.95 351.76,-400.53 343.76,-407.48 349.84,-410.95"/>
</a>
</g>
</g>
<!-- Node5 -->
<g id="Node000005" class="node">
<title>Node5</title>
<g id="a_Node000005"><a xlink:href="group__stts22h__interface__driver.html#ga0f697c932b857e166176d1e0966300f9" target="_top" xlink:title="interface delay ms">
<polygon fill="white" stroke="#666666" points="264.5,-484 126.25,-484 126.25,-464 264.5,-464 264.5,-484"/>
<text xml:space="preserve" text-anchor="middle" x="195.38" y="-470.5" font-family="Helvetica,sans-Serif" font-size="10.00">stts22h_interface_delay_ms</text>
</a>
</g>
</g>
<!-- Node1&#45;&gt;Node5 -->
<g id="edge4_Node000001_Node000005" class="edge">
<title>Node1&#45;&gt;Node5</title>
<g id="a_edge4_Node000001_Node000005"><a xlink:title=" ">
<path fill="none" stroke="#63b8ff" d="M49.5,-336.17C58.14,-360.59 83.43,-422.89 126.25,-455 127.98,-456.3 129.8,-457.51 131.68,-458.64"/>
<polygon fill="#63b8ff" stroke="#63b8ff" points="129.67,-461.54 140.18,-462.93 132.83,-455.29 129.67,-461.54"/>
</a>
</g>
</g>
<!-- Node6 -->
<g id="Node000006" class="node">
<title>Node6</title>
<g id="a_Node000006"><a xlink:href="group__stts22h__interface__driver.html#ga00a9965ef08abdef89017558fc24067f" target="_top" xlink:title="interface iic bus deinit">
<polygon fill="white" stroke="#666666" points="248.38,-446 142.38,-446 142.38,-414 248.38,-414 248.38,-446"/>
<text xml:space="preserve" text-anchor="start" x="150.38" y="-432.5" font-family="Helvetica,sans-Serif" font-size="10.00">stts22h_interface_iic</text>
<text xml:space="preserve" text-anchor="middle" x="195.38" y="-420.5" font-family="Helvetica,sans-Serif" font-size="10.00">_deinit</text>
</a>
</g>
</g>
<!-- Node1&#45;&gt;Node6 -->
<g id="edge5_Node000001_Node000006" class="edge">
<title>Node1&#45;&gt;Node6</title>
<g id="a_edge5_Node000001_Node000006"><a xlink:title=" ">
<path fill="none" stroke="#63b8ff" d="M54.15,-336.39C67.48,-353.01 95.73,-385.65 126.25,-405 128.13,-406.19 130.07,-407.33 132.05,-408.43"/>
<polygon fill="#63b8ff" stroke="#63b8ff" points="130.43,-411.54 140.94,-412.88 133.57,-405.28 130.43,-411.54"/>
</a>
</g>
</g>
<!-- Node7 -->
<g id="Node000007" class="node">
<title>Node7</title>
<g id="a_Node000007"><a xlink:href="group__stts22h__interface__driver.html#gae589cb2920e761d274c9b80f23060538" target="_top" xlink:title="interface iic bus init">
<polygon fill="white" stroke="#666666" points="257.38,-396 133.38,-396 133.38,-376 257.38,-376 257.38,-396"/>
<text xml:space="preserve" text-anchor="middle" x="195.38" y="-382.5" font-family="Helvetica,sans-Serif" font-size="10.00">stts22h_interface_iic_init</text>
</a>
</g>
</g>
<!-- Node1&#45;&gt;Node7 -->
<g id="edge6_Node000001_Node000007" class="edge">
<title>Node1&#45;&gt;Node7</title>
<g id="a_edge6_Node000001_Node000007"><a xlink:title=" ">
<path fill="none" stroke="#63b8ff" d="M63.79,-336.35C79.71,-345.35 103.98,-358.3 126.25,-367 130.94,-368.83 135.88,-370.57 140.87,-372.19"/>
<polygon fill="#63b8ff" stroke="#63b8ff" points="139.75,-375.51 150.34,-375.1 141.81,-368.81 139.75,-375.51"/>
</a>
</g>
</g>
<!-- Node8 -->
<g id="Node000008" class="node">
<title>Node8</title>
<g id="a_Node000008"><a xlink:href="group__stts22h__interface__driver.html#gaf01777312f90ef24034bf82f3e6db6d7" target="_top" xlink:title="interface iic bus read">
<polygon fill="white" stroke="#666666" points="260.38,-358 130.38,-358 130.38,-338 260.38,-338 260.38,-358"/>
<text xml:space="preserve" text-anchor="middle" x="195.38" y="-344.5" font-family="Helvetica,sans-Serif" font-size="10.00">stts22h_interface_iic_read</text>
</a>
</g>
</g>
<!-- Node1&#45;&gt;Node8 -->
<g id="edge7_Node000001_Node000008" class="edge">
<title>Node1&#45;&gt;Node8</title>
<g id="a_edge7_Node000001_Node000008"><a xlink:title=" ">
<path fill="none" stroke="#63b8ff" d="M90.6,-332.6C99.49,-333.92 109.06,-335.34 118.67,-336.77"/>
<polygon fill="#63b8ff" stroke="#63b8ff" points="118.02,-340.21 128.42,-338.21 119.05,-333.28 118.02,-340.21"/>
</a>
</g>
</g>
<!-- Node9 -->
<g id="Node000009" class="node">
<title>Node9</title>
<g id="a_Node000009"><a xlink:href="group__stts22h__interface__driver.html#gabcb8632a70020a5817d55163d68ef870" target="_top" xlink:title="interface iic bus write">
<polygon fill="white" stroke="#666666" points="248.38,-320 142.38,-320 142.38,-288 248.38,-288 248.38,-320"/>
<text xml:space="preserve" text-anchor="start" x="150.38" y="-306.5" font-family="Helvetica,sans-Serif" font-size="10.00">stts22h_interface_iic</text>
<text xml:space="preserve" text-anchor="middle" x="195.38" y="-294.5" font-family="Helvetica,sans-Serif" font-size="10.00">_write</text>
</a>
</g>
</g>
<!-- Node1&#45;&gt;Node9 -->
<g id="edge8_Node000001_Node000009" class="edge">
<title>Node1&#45;&gt;Node9</title>
<g id="a_edge8_Node000001_Node000009"><a xlink:title=" ">
<path fill="none" stroke="#63b8ff" d="M90.6,-319.4C103.26,-317.52 117.31,-315.44 130.86,-313.42"/>
<polygon fill="#63b8ff" stroke="#63b8ff" points="131.22,-316.91 140.6,-311.98 130.2,-309.99 131.22,-316.91"/>
</a>
</g>
</g>
<!-- Node10 -->
<g id="Node000010" class="node">
<title>Node10</title>
<g id="a_Node000010"><a xlink:href="group__stts22h__interface__driver.html#ga6b01ca23ead405b9c46b096e84182652" target="_top" xlink:title="interface receive callback">
<polygon fill="white" stroke="#666666" points="259.25,-270 131.5,-270 131.5,-238 259.25,-238 259.25,-270"/>
<text xml:space="preserve" text-anchor="start" x="139.5" y="-256.5" font-family="Helvetica,sans-Serif" font-size="10.00">stts22h_interface_receive</text>
<text xml:space="preserve" text-anchor="middle" x="195.38" y="-244.5" font-family="Helvetica,sans-Serif" font-size="10.00">_callback</text>
</a>
</g>
</g>
<!-- Node1&#45;&gt;Node10 -->
<g id="edge9_Node000001_Node000010" class="edge">
<title>Node1&#45;&gt;Node10</title>
<g id="a_edge9_Node000001_Node000010"><a xlink:title=" ">
<path fill="none" stroke="#63b8ff" d="M61.93,-315.59C77.77,-305.43 103.06,-289.95 126.25,-279 129.34,-277.54 132.54,-276.11 135.79,-274.72"/>
<polygon fill="#63b8ff" stroke="#63b8ff" points="136.96,-278.02 144.88,-270.99 134.3,-271.55 136.96,-278.02"/>
</a>
</g>
</g>
<!-- Node11 -->
<g id="Node000011" class="node">
<title>Node11</title>
<g id="a_Node000011"><a xlink:href="group__stts22h__base__driver.html#ga5d494bb54199b3933c051461db80bfb7" target="_top" xlink:title="set the iic address pin">
<polygon fill="white" stroke="#666666" points="249.88,-220 140.88,-220 140.88,-200 249.88,-200 249.88,-220"/>
<text xml:space="preserve" text-anchor="middle" x="195.38" y="-206.5" font-family="Helvetica,sans-Serif" font-size="10.00">stts22h_set_addr_pin</text>
</a>
</g>
</g>
<!-- Node1&#45;&gt;Node11 -->
<g id="edge11_Node000001_Node000011" class="edge">
<title>Node1&#45;&gt;Node11</title>
<g id="a_edge11_Node000001_Node000011"><a xlink:title=" ">
<path fill="none" stroke="#63b8ff" d="M51.7,-315.75C63.02,-295.89 90.72,-252.09 126.25,-229 128.38,-227.61 130.62,-226.33 132.92,-225.13"/>
<polygon fill="#63b8ff" stroke="#63b8ff" points="134.29,-228.36 142,-221.09 131.44,-221.96 134.29,-228.36"/>
</a>
</g>
</g>
<!-- Node12 -->
<g id="Node000012" class="node">
<title>Node12</title>
<g id="a_Node000012"><a xlink:href="group__stts22h__base__driver.html#gab26ef8822e79a09c70823d009476e036" target="_top" xlink:title="enable or disable block data update">
<polygon fill="white" stroke="#666666" points="255.12,-182 135.62,-182 135.62,-150 255.12,-150 255.12,-182"/>
<text xml:space="preserve" text-anchor="start" x="143.62" y="-168.5" font-family="Helvetica,sans-Serif" font-size="10.00">stts22h_set_block_data</text>
<text xml:space="preserve" text-anchor="middle" x="195.38" y="-156.5" font-family="Helvetica,sans-Serif" font-size="10.00">_update</text>
</a>
</g>
</g>
<!-- Node1&#45;&gt;Node12 -->
<g id="edge12_Node000001_Node000012" class="edge">
<title>Node1&#45;&gt;Node12</title>
<g id="a_edge12_Node000001_Node000012"><a xlink:title=" ">
<path fill="none" stroke="#63b8ff" d="M49.53,-315.58C58.25,-290.53 83.7,-226.36 126.25,-191 127.34,-190.09 128.47,-189.22 129.62,-188.38"/>
<polygon fill="#63b8ff" stroke="#63b8ff" points="131.11,-191.57 137.72,-183.29 127.39,-185.65 131.11,-191.57"/>
</a>
</g>
</g>
<!-- Node13 -->
<g id="Node000013" class="node">
<title>Node13</title>
<g id="a_Node000013"><a xlink:href="group__stts22h__base__driver.html#gabc8da8ca92e5279664bda4b7373e7ab4" target="_top" xlink:title="enable or disable disable smbus timeout">
<polygon fill="white" stroke="#666666" points="246.88,-132 143.88,-132 143.88,-100 246.88,-100 246.88,-132"/>
<text xml:space="preserve" text-anchor="start" x="151.88" y="-118.5" font-family="Helvetica,sans-Serif" font-size="10.00">stts22h_set_disable</text>
<text xml:space="preserve" text-anchor="middle" x="195.38" y="-106.5" font-family="Helvetica,sans-Serif" font-size="10.00">_smbus_timeout</text>
</a>
</g>
</g>
<!-- Node1&#45;&gt;Node13 -->
<g id="edge13_Node000001_Node000013" class="edge">
<title>Node1&#45;&gt;Node13</title>
<g id="a_edge13_Node000001_Node000013"><a xlink:title=" ">
<path fill="none" stroke="#63b8ff" d="M47.71,-315.56C52.94,-284.51 72.56,-191.71 126.25,-141 128.61,-138.77 131.19,-136.74 133.91,-134.88"/>
<polygon fill="#63b8ff" stroke="#63b8ff" points="135.44,-138.04 142.34,-129.99 131.93,-131.98 135.44,-138.04"/>
</a>
</g>
</g>
<!-- Node14 -->
<g id="Node000014" class="node">
<title>Node14</title>
<g id="a_Node000014"><a xlink:href="group__stts22h__base__driver.html#ga4714057c593c9fe398f2cbbf26c5a121" target="_top" xlink:title="enable or disable iic address auto increment">
<polygon fill="white" stroke="#666666" points="256.25,-82 134.5,-82 134.5,-50 256.25,-50 256.25,-82"/>
<text xml:space="preserve" text-anchor="start" x="142.5" y="-68.5" font-family="Helvetica,sans-Serif" font-size="10.00">stts22h_set_iic_address</text>
<text xml:space="preserve" text-anchor="middle" x="195.38" y="-56.5" font-family="Helvetica,sans-Serif" font-size="10.00">_auto_increment</text>
</a>
</g>
</g>
<!-- Node1&#45;&gt;Node14 -->
<g id="edge14_Node000001_Node000014" class="edge">
<title>Node1&#45;&gt;Node14</title>
<g id="a_edge14_Node000001_Node000014"><a xlink:title=" ">
<path fill="none" stroke="#63b8ff" d="M46.59,-315.96C48.76,-280.24 60.88,-157.9 126.25,-91 126.84,-90.39 127.45,-89.8 128.08,-89.22"/>
<polygon fill="#63b8ff" stroke="#63b8ff" points="129.9,-92.23 135.73,-83.39 125.66,-86.66 129.9,-92.23"/>
</a>
</g>
</g>
<!-- Node15 -->
<g id="Node000015" class="node">
<title>Node15</title>
<g id="a_Node000015"><a xlink:href="group__stts22h__base__driver.html#ga6c336d8ea15d7d9d5449e083e1851f89" target="_top" xlink:title="set output data rate">
<polygon fill="white" stroke="#666666" points="245,-32 145.75,-32 145.75,0 245,0 245,-32"/>
<text xml:space="preserve" text-anchor="start" x="153.75" y="-18.5" font-family="Helvetica,sans-Serif" font-size="10.00">stts22h_set_output</text>
<text xml:space="preserve" text-anchor="middle" x="195.38" y="-6.5" font-family="Helvetica,sans-Serif" font-size="10.00">_data_rate</text>
</a>
</g>
</g>
<!-- Node1&#45;&gt;Node15 -->
<g id="edge15_Node000001_Node000015" class="edge">
<title>Node1&#45;&gt;Node15</title>
<g id="a_edge15_Node000001_Node000015"><a xlink:title=" ">
<path fill="none" stroke="#63b8ff" d="M45.88,-315.6C45.48,-274.82 49.46,-124 126.25,-41 128.99,-38.04 132.1,-35.44 135.46,-33.14"/>
<polygon fill="#63b8ff" stroke="#63b8ff" points="137.18,-36.18 144.13,-28.18 133.71,-30.1 137.18,-36.18"/>
</a>
</g>
</g>
<!-- Node10&#45;&gt;Node4 -->
<g id="edge10_Node000010_Node000004" class="edge">
<title>Node10&#45;&gt;Node4</title>
<g id="a_edge10_Node000010_Node000004"><a xlink:title=" ">
<path fill="none" stroke="#63b8ff" d="M248.96,-270.38C254.39,-272.92 259.68,-275.79 264.5,-279 296.38,-300.25 325.1,-334.14 342.7,-357.42"/>
<polygon fill="#63b8ff" stroke="#63b8ff" points="339.88,-359.5 348.64,-365.47 345.51,-355.34 339.88,-359.5"/>
</a>
</g>
</g>
</g>
</svg>
