<?xml version="1.0" encoding="UTF-8" standalone="no"?>
<!DOCTYPE svg PUBLIC "-//W3C//DTD SVG 1.1//EN"
 "http://www.w3.org/Graphics/SVG/1.1/DTD/svg11.dtd">
<!-- Generated by graphviz version 14.1.1 (20251213.1925)
 -->
<!-- Title: stts22h_basic_init Pages: 1 -->
<svg width="447pt" height="644pt"
 viewBox="0.00 0.00 447.00 644.00" xmlns="http://www.w3.org/2000/svg" xmlns:xlink="http://www.w3.org/1999/xlink">
<g id="graph0" class="graph" transform="scale(1 1) rotate(0) translate(4 640)">
<title>stts22h_basic_init</title>
<!-- Node1 -->
<g id="Node000001" class="node">
<title>Node1</title>
<g id="a_Node000001"><a xlink:title="basic example init">
<polygon fill="#999999" stroke="#666666" points="94.75,-352 0,-352 0,-332 94.75,-332 94.75,-352"/>
<text xml:space="preserve" text-anchor="middle" x="47.38" y="-338.5" font-family="Helvetica,sans-Serif" font-size="10.00">stts22h_basic_init</text>
</a>
</g>
</g>
<!-- Node2 -->
<g id="Node000002" class="node">
<title>Node2</title>
<g id="a_Node000002"><a xlink:href="group__stts22h__base__driver.html#ga6c3974950917c8be71f019d8f1135063" target="_top" xlink:title="close the chip">
<polygon fill="white" stroke="#666666" points="243.88,-636 167.12,-636 167.12,-616 243.88,-616 243.88,-636"/>
<text xml:space="preserve" text-anchor="middle" x="205.5" y="-622.5" font-family="Helvetica,sans-Serif" font-size="10.00">stts22h_deinit</text>
</a>
</g>
</g>
<!-- Node1&#45;&gt;Node2 -->
<g id="edge1_Node000001_Node000002" class="edge">
<title>Node1&#45;&gt;Node2</title>
<g id="a_edge1_Node000001_Node000002"><a xlink:title=" ">
<path fill="none" stroke="#63b8ff" d="M48.25,-352.45C48.38,-392.04 54.33,-534.25 130.75,-607 137.7,-613.62 146.64,-618.01 155.88,-620.91"/>
<polygon fill="#63b8ff" stroke="#63b8ff" points="154.75,-624.23 165.3,-623.29 156.47,-617.44 154.75,-624.23"/>
</a>
</g>
</g>
<!-- Node3 -->
<g id="Node000003" class="node">
<title>Node3</title>
<g id="a_Node000003"><a xlink:href="group__stts22h__base__driver.html#ga04e2519a7ad227c2e7a96bf8204dfc89" target="_top" xlink:title="initialize the chip">
<polygon fill="white" stroke="#666666" points="238.62,-598 172.38,-598 172.38,-578 238.62,-578 238.62,-598"/>
<text xml:space="preserve" text-anchor="middle" x="205.5" y="-584.5" font-family="Helvetica,sans-Serif" font-size="10.00">stts22h_init</text>
</a>
</g>
</g>
<!-- Node1&#45;&gt;Node3 -->
<g id="edge2_Node000001_Node000003" class="edge">
<title>Node1&#45;&gt;Node3</title>
<g id="a_edge2_Node000001_Node000003"><a xlink:title=" ">
<path fill="none" stroke="#63b8ff" d="M49.09,-352.06C52.09,-386.74 66.7,-502.5 130.75,-564 139.13,-572.04 150.23,-577.39 161.27,-580.95"/>
<polygon fill="#63b8ff" stroke="#63b8ff" points="160.16,-584.27 170.73,-583.54 162.01,-577.52 160.16,-584.27"/>
</a>
</g>
</g>
<!-- Node4 -->
<g id="Node000004" class="node">
<title>Node4</title>
<g id="a_Node000004"><a xlink:href="group__stts22h__interface__driver.html#gadeca3998d60b782109b087fd17177add" target="_top" xlink:title="interface print format data">
<polygon fill="white" stroke="#666666" points="438.75,-437 316.25,-437 316.25,-405 438.75,-405 438.75,-437"/>
<text xml:space="preserve" text-anchor="start" x="324.25" y="-423.5" font-family="Helvetica,sans-Serif" font-size="10.00">stts22h_interface_debug</text>
<text xml:space="preserve" text-anchor="middle" x="377.5" y="-411.5" font-family="Helvetica,sans-Serif" font-size="10.00">_print</text>
</a>
</g>
</g>
<!-- Node1&#45;&gt;Node4 -->
<g id="edge3_Node000001_Node000004" class="edge">
<title>Node1&#45;&gt;Node4</title>
<g id="a_edge3_Node000001_Node000004"><a xlink:title=" ">
<path fill="none" stroke="#63b8ff" d="M49.13,-352.2C52.16,-385.16 66.67,-489.03 130.75,-531 186.33,-567.41 219.74,-558.46 280.25,-531 317.99,-513.87 346.75,-473.83 362.63,-447.08"/>
<polygon fill="#63b8ff" stroke="#63b8ff" points="365.59,-448.95 367.51,-438.53 359.51,-445.48 365.59,-448.95"/>
</a>
</g>
</g>
<!-- Node5 -->
<g id="Node000005" class="node">
<title>Node5</title>
<g id="a_Node000005"><a xlink:href="group__stts22h__interface__driver.html#ga0f697c932b857e166176d1e0966300f9" target="_top" xlink:title="interface delay ms">
<polygon fill="white" stroke="#666666" points="274.62,-522 136.38,-522 136.38,-502 274.62,-502 274.62,-522"/>
<text xml:space="preserve" text-anchor="middle" x="205.5" y="-508.5" font-family="Helvetica,sans-Serif" font-size="10.00">stts22h_interface_delay_ms</text>
</a>
</g>
</g>
<!-- Node1&#45;&gt;Node5 -->
<g id="edge4_Node000001_Node000005" class="edge">
<title>Node1&#45;&gt;Node5</title>
<g id="a_edge4_Node000001_Node000005"><a xlink:title=" ">
<path fill="none" stroke="#63b8ff" d="M50.91,-352.3C58.22,-379.73 81.98,-455.01 130.75,-493 132.26,-494.17 133.83,-495.27 135.45,-496.31"/>
<polygon fill="#63b8ff" stroke="#63b8ff" points="133.43,-499.2 143.9,-500.81 136.72,-493.02 133.43,-499.2"/>
</a>
</g>
</g>
<!-- Node6 -->
<g id="Node000006" class="node">
<title>Node6</title>
<g id="a_Node000006"><a xlink:href="group__stts22h__interface__driver.html#ga00a9965ef08abdef89017558fc24067f" target="_top" xlink:title="interface iic bus deinit">
<polygon fill="white" stroke="#666666" points="258.5,-484 152.5,-484 152.5,-452 258.5,-452 258.5,-484"/>
<text xml:space="preserve" text-anchor="start" x="160.5" y="-470.5" font-family="Helvetica,sans-Serif" font-size="10.00">stts22h_interface_iic</text>
<text xml:space="preserve" text-anchor="middle" x="205.5" y="-458.5" font-family="Helvetica,sans-Serif" font-size="10.00">_deinit</text>
</a>
</g>
</g>
<!-- Node1&#45;&gt;Node6 -->
<g id="edge5_Node000001_Node000006" class="edge">
<title>Node1&#45;&gt;Node6</title>
<g id="a_edge5_Node000001_Node000006"><a xlink:title=" ">
<path fill="none" stroke="#63b8ff" d="M54.18,-352.5C65.98,-372.87 94.69,-417.97 130.75,-443 134.33,-445.49 138.19,-447.74 142.18,-449.79"/>
<polygon fill="#63b8ff" stroke="#63b8ff" points="140.41,-452.83 150.96,-453.82 143.33,-446.47 140.41,-452.83"/>
</a>
</g>
</g>
<!-- Node7 -->
<g id="Node000007" class="node">
<title>Node7</title>
<g id="a_Node000007"><a xlink:href="group__stts22h__interface__driver.html#gae589cb2920e761d274c9b80f23060538" target="_top" xlink:title="interface iic bus init">
<polygon fill="white" stroke="#666666" points="267.5,-434 143.5,-434 143.5,-414 267.5,-414 267.5,-434"/>
<text xml:space="preserve" text-anchor="middle" x="205.5" y="-420.5" font-family="Helvetica,sans-Serif" font-size="10.00">stts22h_interface_iic_init</text>
</a>
</g>
</g>
<!-- Node1&#45;&gt;Node7 -->
<g id="edge6_Node000001_Node000007" class="edge">
<title>Node1&#45;&gt;Node7</title>
<g id="a_edge6_Node000001_Node000007"><a xlink:title=" ">
<path fill="none" stroke="#63b8ff" d="M58.63,-352.08C73.36,-366 101.93,-390.99 130.75,-405 134.41,-406.78 138.26,-408.41 142.2,-409.89"/>
<polygon fill="#63b8ff" stroke="#63b8ff" points="140.74,-413.09 151.34,-413.01 143,-406.47 140.74,-413.09"/>
</a>
</g>
</g>
<!-- Node8 -->
<g id="Node000008" class="node">
<title>Node8</title>
<g id="a_Node000008"><a xlink:href="group__stts22h__interface__driver.html#gaf01777312f90ef24034bf82f3e6db6d7" target="_top" xlink:title="interface iic bus read">
<polygon fill="white" stroke="#666666" points="270.5,-396 140.5,-396 140.5,-376 270.5,-376 270.5,-396"/>
<text xml:space="preserve" text-anchor="middle" x="205.5" y="-382.5" font-family="Helvetica,sans-Serif" font-size="10.00">stts22h_interface_iic_read</text>
</a>
</g>
</g>
<!-- Node1&#45;&gt;Node8 -->
<g id="edge7_Node000001_Node000008" class="edge">
<title>Node1&#45;&gt;Node8</title>
<g id="a_edge7_Node000001_Node000008"><a xlink:title=" ">
<path fill="none" stroke="#63b8ff" d="M81.55,-352.42C96.53,-357.03 114.49,-362.44 130.75,-367 137.52,-368.9 144.65,-370.83 151.71,-372.69"/>
<polygon fill="#63b8ff" stroke="#63b8ff" points="150.66,-376.03 161.22,-375.17 152.43,-369.26 150.66,-376.03"/>
</a>
</g>
</g>
<!-- Node9 -->
<g id="Node000009" class="node">
<title>Node9</title>
<g id="a_Node000009"><a xlink:href="group__stts22h__interface__driver.html#gabcb8632a70020a5817d55163d68ef870" target="_top" xlink:title="interface iic bus write">
<polygon fill="white" stroke="#666666" points="258.5,-358 152.5,-358 152.5,-326 258.5,-326 258.5,-358"/>
<text xml:space="preserve" text-anchor="start" x="160.5" y="-344.5" font-family="Helvetica,sans-Serif" font-size="10.00">stts22h_interface_iic</text>
<text xml:space="preserve" text-anchor="middle" x="205.5" y="-332.5" font-family="Helvetica,sans-Serif" font-size="10.00">_write</text>
</a>
</g>
</g>
<!-- Node1&#45;&gt;Node9 -->
<g id="edge8_Node000001_Node000009" class="edge">
<title>Node1&#45;&gt;Node9</title>
<g id="a_edge8_Node000001_Node000009"><a xlink:title=" ">
<path fill="none" stroke="#63b8ff" d="M95.22,-342C109.53,-342 125.52,-342 140.76,-342"/>
<polygon fill="#63b8ff" stroke="#63b8ff" points="140.71,-345.5 150.71,-342 140.71,-338.5 140.71,-345.5"/>
</a>
</g>
</g>
<!-- Node10 -->
<g id="Node000010" class="node">
<title>Node10</title>
<g id="a_Node000010"><a xlink:href="group__stts22h__interface__driver.html#ga6b01ca23ead405b9c46b096e84182652" target="_top" xlink:title="interface receive callback">
<polygon fill="white" stroke="#666666" points="269.38,-308 141.62,-308 141.62,-276 269.38,-276 269.38,-308"/>
<text xml:space="preserve" text-anchor="start" x="149.62" y="-294.5" font-family="Helvetica,sans-Serif" font-size="10.00">stts22h_interface_receive</text>
<text xml:space="preserve" text-anchor="middle" x="205.5" y="-282.5" font-family="Helvetica,sans-Serif" font-size="10.00">_callback</text>
</a>
</g>
</g>
<!-- Node1&#45;&gt;Node10 -->
<g id="edge9_Node000001_Node000010" class="edge">
<title>Node1&#45;&gt;Node10</title>
<g id="a_edge9_Node000001_Node000010"><a xlink:title=" ">
<path fill="none" stroke="#63b8ff" d="M81.1,-331.52C98.85,-325.84 121.37,-318.62 142.3,-311.92"/>
<polygon fill="#63b8ff" stroke="#63b8ff" points="143.17,-315.32 151.63,-308.93 141.04,-308.65 143.17,-315.32"/>
</a>
</g>
</g>
<!-- Node11 -->
<g id="Node000011" class="node">
<title>Node11</title>
<g id="a_Node000011"><a xlink:href="group__stts22h__base__driver.html#ga5d494bb54199b3933c051461db80bfb7" target="_top" xlink:title="set the iic address pin">
<polygon fill="white" stroke="#666666" points="260,-258 151,-258 151,-238 260,-238 260,-258"/>
<text xml:space="preserve" text-anchor="middle" x="205.5" y="-244.5" font-family="Helvetica,sans-Serif" font-size="10.00">stts22h_set_addr_pin</text>
</a>
</g>
</g>
<!-- Node1&#45;&gt;Node11 -->
<g id="edge11_Node000001_Node000011" class="edge">
<title>Node1&#45;&gt;Node11</title>
<g id="a_edge11_Node000001_Node000011"><a xlink:title=" ">
<path fill="none" stroke="#63b8ff" d="M56.83,-331.55C70.58,-315.26 99.44,-283.92 130.75,-267 133.79,-265.36 136.98,-263.85 140.26,-262.47"/>
<polygon fill="#63b8ff" stroke="#63b8ff" points="141.38,-265.79 149.53,-259.01 138.93,-259.23 141.38,-265.79"/>
</a>
</g>
</g>
<!-- Node12 -->
<g id="Node000012" class="node">
<title>Node12</title>
<g id="a_Node000012"><a xlink:href="group__stts22h__base__driver.html#gab26ef8822e79a09c70823d009476e036" target="_top" xlink:title="enable or disable block data update">
<polygon fill="white" stroke="#666666" points="265.25,-220 145.75,-220 145.75,-188 265.25,-188 265.25,-220"/>
<text xml:space="preserve" text-anchor="start" x="153.75" y="-206.5" font-family="Helvetica,sans-Serif" font-size="10.00">stts22h_set_block_data</text>
<text xml:space="preserve" text-anchor="middle" x="205.5" y="-194.5" font-family="Helvetica,sans-Serif" font-size="10.00">_update</text>
</a>
</g>
</g>
<!-- Node1&#45;&gt;Node12 -->
<g id="edge12_Node000001_Node000012" class="edge">
<title>Node1&#45;&gt;Node12</title>
<g id="a_edge12_Node000001_Node000012"><a xlink:title=" ">
<path fill="none" stroke="#63b8ff" d="M53.18,-331.61C63.92,-309.5 92.02,-257.47 130.75,-229 132.29,-227.87 133.88,-226.79 135.51,-225.76"/>
<polygon fill="#63b8ff" stroke="#63b8ff" points="136.9,-228.99 143.95,-221.07 133.51,-222.87 136.9,-228.99"/>
</a>
</g>
</g>
<!-- Node13 -->
<g id="Node000013" class="node">
<title>Node13</title>
<g id="a_Node000013"><a xlink:href="group__stts22h__base__driver.html#gabc8da8ca92e5279664bda4b7373e7ab4" target="_top" xlink:title="enable or disable disable smbus timeout">
<polygon fill="white" stroke="#666666" points="257,-170 154,-170 154,-138 257,-138 257,-170"/>
<text xml:space="preserve" text-anchor="start" x="162" y="-156.5" font-family="Helvetica,sans-Serif" font-size="10.00">stts22h_set_disable</text>
<text xml:space="preserve" text-anchor="middle" x="205.5" y="-144.5" font-family="Helvetica,sans-Serif" font-size="10.00">_smbus_timeout</text>
</a>
</g>
</g>
<!-- Node1&#45;&gt;Node13 -->
<g id="edge13_Node000001_Node000013" class="edge">
<title>Node1&#45;&gt;Node13</title>
<g id="a_edge13_Node000001_Node000013"><a xlink:title=" ">
<path fill="none" stroke="#63b8ff" d="M50.72,-331.52C57.69,-302.82 80.94,-222.23 130.75,-179 134.59,-175.67 138.89,-172.78 143.43,-170.27"/>
<polygon fill="#63b8ff" stroke="#63b8ff" points="144.81,-173.49 152.32,-166.02 141.79,-167.18 144.81,-173.49"/>
</a>
</g>
</g>
<!-- Node14 -->
<g id="Node000014" class="node">
<title>Node14</title>
<g id="a_Node000014"><a xlink:href="group__stts22h__base__driver.html#ga4714057c593c9fe398f2cbbf26c5a121" target="_top" xlink:title="enable or disable iic address auto increment">
<polygon fill="white" stroke="#666666" points="266.38,-120 144.62,-120 144.62,-88 266.38,-88 266.38,-120"/>
<text xml:space="preserve" text-anchor="start" x="152.62" y="-106.5" font-family="Helvetica,sans-Serif" font-size="10.00">stts22h_set_iic_address</text>
<text xml:space="preserve" text-anchor="middle" x="205.5" y="-94.5" font-family="Helvetica,sans-Serif" font-size="10.00">_auto_increment</text>
</a>
</g>
</g>
<!-- Node1&#45;&gt;Node14 -->
<g id="edge14_Node000001_Node000014" class="edge">
<title>Node1&#45;&gt;Node14</title>
<g id="a_edge14_Node000001_Node000014"><a xlink:title=" ">
<path fill="none" stroke="#63b8ff" d="M49.3,-331.9C52.94,-298.13 69.22,-187.99 130.75,-129 132.13,-127.68 133.57,-126.43 135.08,-125.25"/>
<polygon fill="#63b8ff" stroke="#63b8ff" points="136.61,-128.43 143.02,-120 132.75,-122.59 136.61,-128.43"/>
</a>
</g>
</g>
<!-- Node15 -->
<g id="Node000015" class="node">
<title>Node15</title>
<g id="a_Node000015"><a xlink:href="group__stts22h__base__driver.html#ga6c336d8ea15d7d9d5449e083e1851f89" target="_top" xlink:title="set output data rate">
<polygon fill="white" stroke="#666666" points="255.12,-70 155.88,-70 155.88,-38 255.12,-38 255.12,-70"/>
<text xml:space="preserve" text-anchor="start" x="163.88" y="-56.5" font-family="Helvetica,sans-Serif" font-size="10.00">stts22h_set_output</text>
<text xml:space="preserve" text-anchor="middle" x="205.5" y="-44.5" font-family="Helvetica,sans-Serif" font-size="10.00">_data_rate</text>
</a>
</g>
</g>
<!-- Node1&#45;&gt;Node15 -->
<g id="edge15_Node000001_Node000015" class="edge">
<title>Node1&#45;&gt;Node15</title>
<g id="a_edge15_Node000001_Node000015"><a xlink:title=" ">
<path fill="none" stroke="#63b8ff" d="M48.46,-331.54C49.34,-292.5 57.69,-153.78 130.75,-79 135,-74.65 140.04,-71.05 145.45,-68.09"/>
<polygon fill="#63b8ff" stroke="#63b8ff" points="146.56,-71.43 154.14,-64.03 143.6,-65.09 146.56,-71.43"/>
</a>
</g>
</g>
<!-- Node16 -->
<g id="Node000016" class="node">
<title>Node16</title>
<g id="a_Node000016"><a xlink:href="group__stts22h__base__driver.html#gad4f27de5a680d4b22b4f3e3f4e73806c" target="_top" xlink:title="start the chip reading">
<polygon fill="white" stroke="#666666" points="280.25,-20 130.75,-20 130.75,0 280.25,0 280.25,-20"/>
<text xml:space="preserve" text-anchor="middle" x="205.5" y="-6.5" font-family="Helvetica,sans-Serif" font-size="10.00">stts22h_start_continuous_read</text>
</a>
</g>
</g>
<!-- Node1&#45;&gt;Node16 -->
<g id="edge16_Node000001_Node000016" class="edge">
<title>Node1&#45;&gt;Node16</title>
<g id="a_edge16_Node000001_Node000016"><a xlink:title=" ">
<path fill="none" stroke="#63b8ff" d="M49.69,-331.63C56.13,-282.51 85.83,-73.68 130.75,-29 131.51,-28.25 132.29,-27.52 133.1,-26.82"/>
<polygon fill="#63b8ff" stroke="#63b8ff" points="135.02,-29.75 141.29,-21.2 131.07,-23.97 135.02,-29.75"/>
</a>
</g>
</g>
<!-- Node10&#45;&gt;Node4 -->
<g id="edge10_Node000010_Node000004" class="edge">
<title>Node10&#45;&gt;Node4</title>
<g id="a_edge10_Node000010_Node000004"><a xlink:title=" ">
<path fill="none" stroke="#63b8ff" d="M264.2,-308.38C269.81,-310.9 275.26,-313.76 280.25,-317 312.54,-337.95 341.31,-372.13 358.8,-395.55"/>
<polygon fill="#63b8ff" stroke="#63b8ff" points="355.76,-397.32 364.48,-403.33 361.41,-393.19 355.76,-397.32"/>
</a>
</g>
</g>
</g>
</svg>
