<?xml version="1.0" encoding="UTF-8" standalone="no"?>
<!DOCTYPE svg PUBLIC "-//W3C//DTD SVG 1.1//EN"
 "http://www.w3.org/Graphics/SVG/1.1/DTD/svg11.dtd">
<!-- Generated by graphviz version 14.1.1 (20251213.1925)
 -->
<!-- Title: stts22h_interrupt_deinit Pages: 1 -->
<svg width="310pt" height="66pt"
 viewBox="0.00 0.00 310.00 66.00" xmlns="http://www.w3.org/2000/svg" xmlns:xlink="http://www.w3.org/1999/xlink">
<g id="graph0" class="graph" transform="scale(1 1) rotate(0) translate(4 62)">
<title>stts22h_interrupt_deinit</title>
<!-- Node1 -->
<g id="Node000001" class="node">
<title>Node1</title>
<g id="a_Node000001"><a xlink:title="interrupt example deinit">
<polygon fill="#999999" stroke="#666666" points="117.25,-39 0,-39 0,-19 117.25,-19 117.25,-39"/>
<text xml:space="preserve" text-anchor="middle" x="58.62" y="-25.5" font-family="Helvetica,sans-Serif" font-size="10.00">stts22h_interrupt_deinit</text>
</a>
</g>
</g>
<!-- Node2 -->
<g id="Node000002" class="node">
<title>Node2</title>
<g id="a_Node000002"><a xlink:href="group__stts22h__base__driver.html#ga6c3974950917c8be71f019d8f1135063" target="_top" xlink:title="close the chip">
<polygon fill="white" stroke="#666666" points="266,-58 189.25,-58 189.25,-38 266,-38 266,-58"/>
<text xml:space="preserve" text-anchor="middle" x="227.62" y="-44.5" font-family="Helvetica,sans-Serif" font-size="10.00">stts22h_deinit</text>
</a>
</g>
</g>
<!-- Node1&#45;&gt;Node2 -->
<g id="edge1_Node000001_Node000002" class="edge">
<title>Node1&#45;&gt;Node2</title>
<g id="a_edge1_Node000001_Node000002"><a xlink:title=" ">
<path fill="none" stroke="#63b8ff" d="M117.56,-35.59C137.15,-37.82 158.8,-40.28 177.62,-42.43"/>
<polygon fill="#63b8ff" stroke="#63b8ff" points="177.1,-45.89 187.43,-43.54 177.89,-38.93 177.1,-45.89"/>
</a>
</g>
</g>
<!-- Node3 -->
<g id="Node000003" class="node">
<title>Node3</title>
<g id="a_Node000003"><a xlink:href="group__stts22h__base__driver.html#ga3752c6fa7295a5df3925195dbe743e5d" target="_top" xlink:title="stop the chip reading">
<polygon fill="white" stroke="#666666" points="302,-20 153.25,-20 153.25,0 302,0 302,-20"/>
<text xml:space="preserve" text-anchor="middle" x="227.62" y="-6.5" font-family="Helvetica,sans-Serif" font-size="10.00">stts22h_stop_continuous_read</text>
</a>
</g>
</g>
<!-- Node1&#45;&gt;Node3 -->
<g id="edge2_Node000001_Node000003" class="edge">
<title>Node1&#45;&gt;Node3</title>
<g id="a_edge2_Node000001_Node000003"><a xlink:title=" ">
<path fill="none" stroke="#63b8ff" d="M117.56,-22.41C125.31,-21.53 133.39,-20.61 141.48,-19.69"/>
<polygon fill="#63b8ff" stroke="#63b8ff" points="141.86,-23.17 151.4,-18.56 141.07,-16.21 141.86,-23.17"/>
</a>
</g>
</g>
</g>
</svg>
